<mxfile host="app.diagrams.net" agent="Mozilla/5.0 (Windows NT 10.0; Win64; x64) AppleWebKit/537.36 (KHTML, like Gecko) Chrome/137.0.0.0 Safari/537.36" version="27.1.4">
  <diagram name="Page-1" id="_gbdgaabAAsw5yUfKmxe">
    <mxGraphModel dx="2350" dy="2391" grid="1" gridSize="10" guides="1" tooltips="1" connect="1" arrows="0" fold="1" page="1" pageScale="1" pageWidth="850" pageHeight="1100" math="0" shadow="0">
      <root>
        <mxCell id="0" />
        <mxCell id="1" parent="0" />
        <mxCell id="1wcsC5_ncH1TTVxNuy9U-96" style="edgeStyle=orthogonalEdgeStyle;rounded=0;orthogonalLoop=1;jettySize=auto;html=1;exitX=0.5;exitY=0;exitDx=0;exitDy=0;" edge="1" parent="1" source="1wcsC5_ncH1TTVxNuy9U-1">
          <mxGeometry relative="1" as="geometry">
            <mxPoint x="410" y="-650" as="targetPoint" />
          </mxGeometry>
        </mxCell>
        <mxCell id="1wcsC5_ncH1TTVxNuy9U-1" value="" style="rounded=0;whiteSpace=wrap;html=1;fillColor=#FFFFFF;" vertex="1" parent="1">
          <mxGeometry x="30" y="-710" width="770" height="1360" as="geometry" />
        </mxCell>
        <mxCell id="1wcsC5_ncH1TTVxNuy9U-12" value="" style="shape=mxgraph.signs.healthcare.first_aid;html=1;pointerEvents=1;fillColor=#e51400;strokeColor=#B20000;verticalLabelPosition=bottom;verticalAlign=top;align=center;fontColor=#ffffff;" vertex="1" parent="1">
          <mxGeometry x="110" y="-695" width="80" height="80" as="geometry" />
        </mxCell>
        <mxCell id="1wcsC5_ncH1TTVxNuy9U-13" value="&lt;div&gt;&lt;font style=&quot;font-size: 23px;&quot;&gt;SUNSHINE HEALTH&lt;/font&gt;&lt;/div&gt;" style="rounded=0;whiteSpace=wrap;html=1;align=left;gradientColor=none;strokeColor=none;" vertex="1" parent="1">
          <mxGeometry x="197" y="-699" width="360" height="90" as="geometry" />
        </mxCell>
        <mxCell id="1wcsC5_ncH1TTVxNuy9U-16" value="First Name" style="rounded=0;whiteSpace=wrap;html=1;align=left;strokeColor=none;" vertex="1" parent="1">
          <mxGeometry x="100" y="-550" width="190" height="30" as="geometry" />
        </mxCell>
        <mxCell id="1wcsC5_ncH1TTVxNuy9U-17" value="Middle Initial" style="rounded=0;whiteSpace=wrap;html=1;align=left;strokeColor=none;" vertex="1" parent="1">
          <mxGeometry x="300" y="-550" width="160" height="30" as="geometry" />
        </mxCell>
        <mxCell id="1wcsC5_ncH1TTVxNuy9U-18" value="Last Name" style="rounded=0;whiteSpace=wrap;html=1;align=left;strokeColor=none;" vertex="1" parent="1">
          <mxGeometry x="387" y="-550" width="180" height="30" as="geometry" />
        </mxCell>
        <mxCell id="1wcsC5_ncH1TTVxNuy9U-19" value="" style="rounded=0;whiteSpace=wrap;html=1;" vertex="1" parent="1">
          <mxGeometry x="100" y="-520" width="190" height="30" as="geometry" />
        </mxCell>
        <mxCell id="1wcsC5_ncH1TTVxNuy9U-20" value="" style="rounded=0;whiteSpace=wrap;html=1;" vertex="1" parent="1">
          <mxGeometry x="312" y="-520" width="50" height="30" as="geometry" />
        </mxCell>
        <mxCell id="1wcsC5_ncH1TTVxNuy9U-21" value="" style="rounded=0;whiteSpace=wrap;html=1;strokeColor=default;" vertex="1" parent="1">
          <mxGeometry x="387" y="-520" width="180" height="30" as="geometry" />
        </mxCell>
        <mxCell id="1wcsC5_ncH1TTVxNuy9U-23" value="Date of Birth" style="rounded=0;whiteSpace=wrap;html=1;align=left;strokeColor=none;" vertex="1" parent="1">
          <mxGeometry x="100" y="-490" width="300" height="30" as="geometry" />
        </mxCell>
        <mxCell id="1wcsC5_ncH1TTVxNuy9U-25" value="SSN" style="rounded=0;whiteSpace=wrap;html=1;align=left;strokeColor=none;" vertex="1" parent="1">
          <mxGeometry x="240" y="-490" width="240" height="30" as="geometry" />
        </mxCell>
        <mxCell id="1wcsC5_ncH1TTVxNuy9U-26" value="MM/DD/YYY" style="rounded=0;whiteSpace=wrap;html=1;" vertex="1" parent="1">
          <mxGeometry x="100" y="-460" width="110" height="30" as="geometry" />
        </mxCell>
        <mxCell id="1wcsC5_ncH1TTVxNuy9U-27" value="" style="rounded=0;whiteSpace=wrap;html=1;" vertex="1" parent="1">
          <mxGeometry x="240" y="-460" width="120" height="30" as="geometry" />
        </mxCell>
        <mxCell id="1wcsC5_ncH1TTVxNuy9U-28" value="" style="rounded=0;whiteSpace=wrap;html=1;" vertex="1" parent="1">
          <mxGeometry x="100" y="-400" width="230" height="30" as="geometry" />
        </mxCell>
        <mxCell id="1wcsC5_ncH1TTVxNuy9U-29" value="Address Line 1" style="rounded=0;whiteSpace=wrap;html=1;align=left;strokeColor=none;" vertex="1" parent="1">
          <mxGeometry x="100" y="-430" width="300" height="30" as="geometry" />
        </mxCell>
        <mxCell id="1wcsC5_ncH1TTVxNuy9U-30" value="City" style="rounded=0;whiteSpace=wrap;html=1;strokeColor=none;align=left;" vertex="1" parent="1">
          <mxGeometry x="350" y="-430" width="120" height="30" as="geometry" />
        </mxCell>
        <mxCell id="1wcsC5_ncH1TTVxNuy9U-31" value="" style="rounded=0;whiteSpace=wrap;html=1;" vertex="1" parent="1">
          <mxGeometry x="350" y="-400" width="120" height="30" as="geometry" />
        </mxCell>
        <mxCell id="1wcsC5_ncH1TTVxNuy9U-32" value="State" style="rounded=0;whiteSpace=wrap;html=1;align=left;strokeColor=none;" vertex="1" parent="1">
          <mxGeometry x="480" y="-430" width="120" height="30" as="geometry" />
        </mxCell>
        <mxCell id="1wcsC5_ncH1TTVxNuy9U-33" value="Address Line 2" style="rounded=0;whiteSpace=wrap;html=1;align=left;strokeColor=none;" vertex="1" parent="1">
          <mxGeometry x="100" y="-360" width="290" height="30" as="geometry" />
        </mxCell>
        <mxCell id="1wcsC5_ncH1TTVxNuy9U-34" value="&lt;i&gt;select&lt;/i&gt;" style="rounded=0;whiteSpace=wrap;html=1;align=left;" vertex="1" parent="1">
          <mxGeometry x="480" y="-400" width="120" height="30" as="geometry" />
        </mxCell>
        <mxCell id="1wcsC5_ncH1TTVxNuy9U-39" value="" style="rounded=0;whiteSpace=wrap;html=1;" vertex="1" parent="1">
          <mxGeometry x="100" y="-330" width="230" height="30" as="geometry" />
        </mxCell>
        <mxCell id="1wcsC5_ncH1TTVxNuy9U-41" value="Zip Code" style="rounded=0;whiteSpace=wrap;html=1;align=left;strokeColor=none;" vertex="1" parent="1">
          <mxGeometry x="610" y="-430" width="120" height="30" as="geometry" />
        </mxCell>
        <mxCell id="1wcsC5_ncH1TTVxNuy9U-42" value="" style="rounded=0;whiteSpace=wrap;html=1;" vertex="1" parent="1">
          <mxGeometry x="610" y="-400" width="130" height="30" as="geometry" />
        </mxCell>
        <mxCell id="1wcsC5_ncH1TTVxNuy9U-43" value="Describe your current symptoms:" style="rounded=0;whiteSpace=wrap;html=1;align=left;strokeColor=none;" vertex="1" parent="1">
          <mxGeometry x="100" y="-220" width="290" height="30" as="geometry" />
        </mxCell>
        <mxCell id="1wcsC5_ncH1TTVxNuy9U-44" value="" style="rounded=0;whiteSpace=wrap;html=1;" vertex="1" parent="1">
          <mxGeometry x="100" y="-190" width="560" height="80" as="geometry" />
        </mxCell>
        <mxCell id="1wcsC5_ncH1TTVxNuy9U-45" value="Check all of the following that apply:" style="rounded=0;whiteSpace=wrap;html=1;align=left;strokeColor=none;" vertex="1" parent="1">
          <mxGeometry x="100" y="-110" width="560" height="30" as="geometry" />
        </mxCell>
        <mxCell id="1wcsC5_ncH1TTVxNuy9U-46" value="Have you had:" style="rounded=0;whiteSpace=wrap;html=1;align=left;strokeColor=none;" vertex="1" parent="1">
          <mxGeometry x="100" y="-90" width="200" height="30" as="geometry" />
        </mxCell>
        <mxCell id="1wcsC5_ncH1TTVxNuy9U-47" value="" style="whiteSpace=wrap;html=1;aspect=fixed;" vertex="1" parent="1">
          <mxGeometry x="100" y="-60" width="20" height="20" as="geometry" />
        </mxCell>
        <mxCell id="1wcsC5_ncH1TTVxNuy9U-48" value="" style="whiteSpace=wrap;html=1;aspect=fixed;" vertex="1" parent="1">
          <mxGeometry x="100" y="-30" width="20" height="20" as="geometry" />
        </mxCell>
        <mxCell id="1wcsC5_ncH1TTVxNuy9U-49" value="" style="whiteSpace=wrap;html=1;aspect=fixed;" vertex="1" parent="1">
          <mxGeometry x="280" y="-30" width="20" height="20" as="geometry" />
        </mxCell>
        <mxCell id="1wcsC5_ncH1TTVxNuy9U-50" value="" style="whiteSpace=wrap;html=1;aspect=fixed;" vertex="1" parent="1">
          <mxGeometry x="280" y="-60" width="20" height="20" as="geometry" />
        </mxCell>
        <mxCell id="1wcsC5_ncH1TTVxNuy9U-52" value="Cancer" style="rounded=0;whiteSpace=wrap;html=1;strokeColor=none;" vertex="1" parent="1">
          <mxGeometry x="130" y="-60" width="120" height="20" as="geometry" />
        </mxCell>
        <mxCell id="1wcsC5_ncH1TTVxNuy9U-53" value="Arthritis" style="rounded=0;whiteSpace=wrap;html=1;strokeColor=none;" vertex="1" parent="1">
          <mxGeometry x="310" y="-60" width="120" height="20" as="geometry" />
        </mxCell>
        <mxCell id="1wcsC5_ncH1TTVxNuy9U-54" value="Depression" style="rounded=0;whiteSpace=wrap;html=1;strokeColor=none;" vertex="1" parent="1">
          <mxGeometry x="310" y="-30" width="120" height="20" as="geometry" />
        </mxCell>
        <mxCell id="1wcsC5_ncH1TTVxNuy9U-55" value="Diabetes" style="rounded=0;whiteSpace=wrap;html=1;strokeColor=none;" vertex="1" parent="1">
          <mxGeometry x="130" y="-30" width="120" height="20" as="geometry" />
        </mxCell>
        <mxCell id="1wcsC5_ncH1TTVxNuy9U-56" value="" style="whiteSpace=wrap;html=1;aspect=fixed;" vertex="1" parent="1">
          <mxGeometry x="460" y="-60" width="20" height="20" as="geometry" />
        </mxCell>
        <mxCell id="1wcsC5_ncH1TTVxNuy9U-58" value="Cardiovascular diseases" style="rounded=0;whiteSpace=wrap;html=1;strokeColor=none;" vertex="1" parent="1">
          <mxGeometry x="490" y="-60" width="120" height="20" as="geometry" />
        </mxCell>
        <mxCell id="1wcsC5_ncH1TTVxNuy9U-59" value="Gender:" style="rounded=0;whiteSpace=wrap;html=1;align=left;strokeColor=none;" vertex="1" parent="1">
          <mxGeometry x="100" width="120" height="40" as="geometry" />
        </mxCell>
        <mxCell id="1wcsC5_ncH1TTVxNuy9U-60" value="" style="ellipse;whiteSpace=wrap;html=1;aspect=fixed;" vertex="1" parent="1">
          <mxGeometry x="230" y="15" width="10" height="10" as="geometry" />
        </mxCell>
        <mxCell id="1wcsC5_ncH1TTVxNuy9U-61" value="" style="ellipse;whiteSpace=wrap;html=1;aspect=fixed;" vertex="1" parent="1">
          <mxGeometry x="365" y="15" width="10" height="10" as="geometry" />
        </mxCell>
        <mxCell id="1wcsC5_ncH1TTVxNuy9U-62" value="" style="ellipse;whiteSpace=wrap;html=1;aspect=fixed;" vertex="1" parent="1">
          <mxGeometry x="500" y="15" width="10" height="10" as="geometry" />
        </mxCell>
        <mxCell id="1wcsC5_ncH1TTVxNuy9U-63" value="Male" style="rounded=0;whiteSpace=wrap;html=1;strokeColor=none;" vertex="1" parent="1">
          <mxGeometry x="250" y="10" width="100" height="20" as="geometry" />
        </mxCell>
        <mxCell id="1wcsC5_ncH1TTVxNuy9U-65" value="Female" style="rounded=0;whiteSpace=wrap;html=1;strokeColor=none;" vertex="1" parent="1">
          <mxGeometry x="390" y="10" width="100" height="20" as="geometry" />
        </mxCell>
        <mxCell id="1wcsC5_ncH1TTVxNuy9U-66" value="Other" style="rounded=0;whiteSpace=wrap;html=1;strokeColor=none;" vertex="1" parent="1">
          <mxGeometry x="520" y="10" width="100" height="20" as="geometry" />
        </mxCell>
        <mxCell id="1wcsC5_ncH1TTVxNuy9U-67" value="Have you been vaccinated?" style="rounded=0;whiteSpace=wrap;html=1;align=left;strokeColor=none;" vertex="1" parent="1">
          <mxGeometry x="100" y="40" width="230" height="30" as="geometry" />
        </mxCell>
        <mxCell id="1wcsC5_ncH1TTVxNuy9U-68" value="Do you have insurance?" style="rounded=0;whiteSpace=wrap;html=1;align=left;strokeColor=none;" vertex="1" parent="1">
          <mxGeometry x="100" y="80" width="230" height="30" as="geometry" />
        </mxCell>
        <mxCell id="1wcsC5_ncH1TTVxNuy9U-69" value="On&amp;nbsp; a scale 1 to 10, 10 being feeling good, how is your health?" style="rounded=0;whiteSpace=wrap;html=1;align=left;strokeColor=none;" vertex="1" parent="1">
          <mxGeometry x="100" y="120" width="580" height="30" as="geometry" />
        </mxCell>
        <mxCell id="1wcsC5_ncH1TTVxNuy9U-70" value="" style="ellipse;whiteSpace=wrap;html=1;aspect=fixed;" vertex="1" parent="1">
          <mxGeometry x="365" y="50" width="10" height="10" as="geometry" />
        </mxCell>
        <mxCell id="1wcsC5_ncH1TTVxNuy9U-71" value="" style="ellipse;whiteSpace=wrap;html=1;aspect=fixed;" vertex="1" parent="1">
          <mxGeometry x="365" y="90" width="10" height="10" as="geometry" />
        </mxCell>
        <mxCell id="1wcsC5_ncH1TTVxNuy9U-72" value="" style="ellipse;whiteSpace=wrap;html=1;aspect=fixed;" vertex="1" parent="1">
          <mxGeometry x="500" y="50" width="10" height="10" as="geometry" />
        </mxCell>
        <mxCell id="1wcsC5_ncH1TTVxNuy9U-73" value="" style="ellipse;whiteSpace=wrap;html=1;aspect=fixed;" vertex="1" parent="1">
          <mxGeometry x="500" y="90" width="10" height="10" as="geometry" />
        </mxCell>
        <mxCell id="1wcsC5_ncH1TTVxNuy9U-74" value="YES" style="rounded=0;whiteSpace=wrap;html=1;strokeColor=none;" vertex="1" parent="1">
          <mxGeometry x="390" y="45" width="85" height="20" as="geometry" />
        </mxCell>
        <mxCell id="1wcsC5_ncH1TTVxNuy9U-75" value="NO" style="rounded=0;whiteSpace=wrap;html=1;strokeColor=none;" vertex="1" parent="1">
          <mxGeometry x="535" y="45" width="85" height="20" as="geometry" />
        </mxCell>
        <mxCell id="1wcsC5_ncH1TTVxNuy9U-76" value="NO" style="rounded=0;whiteSpace=wrap;html=1;strokeColor=none;" vertex="1" parent="1">
          <mxGeometry x="535" y="85" width="85" height="20" as="geometry" />
        </mxCell>
        <mxCell id="1wcsC5_ncH1TTVxNuy9U-77" value="YES" style="rounded=0;whiteSpace=wrap;html=1;strokeColor=none;" vertex="1" parent="1">
          <mxGeometry x="390" y="85" width="85" height="20" as="geometry" />
        </mxCell>
        <mxCell id="1wcsC5_ncH1TTVxNuy9U-84" value="" style="rounded=1;whiteSpace=wrap;html=1;" vertex="1" parent="1">
          <mxGeometry x="100" y="160" width="630" height="10" as="geometry" />
        </mxCell>
        <mxCell id="1wcsC5_ncH1TTVxNuy9U-85" value="" style="ellipse;whiteSpace=wrap;html=1;aspect=fixed;" vertex="1" parent="1">
          <mxGeometry x="510" y="150" width="30" height="30" as="geometry" />
        </mxCell>
        <mxCell id="1wcsC5_ncH1TTVxNuy9U-86" value="Desired User ID" style="rounded=0;whiteSpace=wrap;html=1;align=left;strokeColor=none;" vertex="1" parent="1">
          <mxGeometry x="100" y="190" width="640" height="30" as="geometry" />
        </mxCell>
        <mxCell id="1wcsC5_ncH1TTVxNuy9U-87" value="" style="rounded=0;whiteSpace=wrap;html=1;" vertex="1" parent="1">
          <mxGeometry x="100" y="230" width="150" height="30" as="geometry" />
        </mxCell>
        <mxCell id="1wcsC5_ncH1TTVxNuy9U-88" value="Password" style="rounded=0;whiteSpace=wrap;html=1;align=left;strokeColor=none;" vertex="1" parent="1">
          <mxGeometry x="100" y="270" width="640" height="30" as="geometry" />
        </mxCell>
        <mxCell id="1wcsC5_ncH1TTVxNuy9U-89" value="" style="rounded=0;whiteSpace=wrap;html=1;" vertex="1" parent="1">
          <mxGeometry x="100" y="310" width="150" height="30" as="geometry" />
        </mxCell>
        <mxCell id="1wcsC5_ncH1TTVxNuy9U-90" value="Re-enter Password" style="rounded=0;whiteSpace=wrap;html=1;align=left;strokeColor=none;" vertex="1" parent="1">
          <mxGeometry x="100" y="350" width="640" height="30" as="geometry" />
        </mxCell>
        <mxCell id="1wcsC5_ncH1TTVxNuy9U-92" value="" style="rounded=0;whiteSpace=wrap;html=1;align=left;" vertex="1" parent="1">
          <mxGeometry x="100" y="390" width="150" height="30" as="geometry" />
        </mxCell>
        <mxCell id="1wcsC5_ncH1TTVxNuy9U-95" value="Email address" style="rounded=0;whiteSpace=wrap;html=1;align=left;strokeColor=none;" vertex="1" parent="1">
          <mxGeometry x="100" y="-290" width="290" height="30" as="geometry" />
        </mxCell>
        <mxCell id="1wcsC5_ncH1TTVxNuy9U-38" value="" style="shape=singleArrow;direction=south;whiteSpace=wrap;html=1;arrowWidth=0.5333358764648437;arrowSize=0.5803558349609375;fillColor=light-dark(#FFFFFF,#FFFFFF);" vertex="1" parent="1">
          <mxGeometry x="582" y="-392" width="12" height="16" as="geometry" />
        </mxCell>
        <mxCell id="1wcsC5_ncH1TTVxNuy9U-98" value="" style="rounded=0;whiteSpace=wrap;html=1;align=left;" vertex="1" parent="1">
          <mxGeometry x="100" y="-260" width="230" height="30" as="geometry" />
        </mxCell>
        <mxCell id="1wcsC5_ncH1TTVxNuy9U-101" value="Submit" style="rounded=1;whiteSpace=wrap;html=1;fontColor=#ffffff;fillColor=#60a917;strokeColor=#2D7600;" vertex="1" parent="1">
          <mxGeometry x="620" y="440" width="120" height="30" as="geometry" />
        </mxCell>
        <mxCell id="1wcsC5_ncH1TTVxNuy9U-103" value="&lt;font&gt;Start over&lt;/font&gt;" style="rounded=1;whiteSpace=wrap;html=1;fontColor=#ffffff;fillColor=light-dark(#E51400,#FF0000);strokeColor=#B20000;" vertex="1" parent="1">
          <mxGeometry x="100" y="440" width="120" height="30" as="geometry" />
        </mxCell>
        <mxCell id="1wcsC5_ncH1TTVxNuy9U-104" value="" style="verticalLabelPosition=bottom;verticalAlign=top;html=1;shape=mxgraph.basic.sun;strokeColor=#BD7000;fillColor=#f0a30a;fontColor=#000000;" vertex="1" parent="1">
          <mxGeometry x="418" y="-670" width="30" height="30" as="geometry" />
        </mxCell>
        <mxCell id="1wcsC5_ncH1TTVxNuy9U-175" value="" style="endArrow=none;html=1;rounded=0;" edge="1" parent="1">
          <mxGeometry width="50" height="50" relative="1" as="geometry">
            <mxPoint x="92.5" y="490" as="sourcePoint" />
            <mxPoint x="772.5" y="490" as="targetPoint" />
          </mxGeometry>
        </mxCell>
        <mxCell id="1wcsC5_ncH1TTVxNuy9U-176" value="Sunshine Health&lt;div&gt;PO Box 123456&lt;/div&gt;&lt;div style=&quot;&quot;&gt;The Woodlands, TX 77381&lt;/div&gt;" style="text;html=1;align=left;verticalAlign=middle;whiteSpace=wrap;rounded=0;" vertex="1" parent="1">
          <mxGeometry x="95" y="502" width="165" height="60" as="geometry" />
        </mxCell>
        <mxCell id="1wcsC5_ncH1TTVxNuy9U-178" value="" style="verticalLabelPosition=bottom;verticalAlign=top;html=1;shape=mxgraph.basic.sun;strokeColor=#BD7000;fillColor=#f0a30a;fontColor=#000000;" vertex="1" parent="1">
          <mxGeometry x="189" y="504" width="24" height="25" as="geometry" />
        </mxCell>
        <mxCell id="1wcsC5_ncH1TTVxNuy9U-179" value="Contact Us" style="text;html=1;align=center;verticalAlign=middle;whiteSpace=wrap;rounded=0;fontStyle=4" vertex="1" parent="1">
          <mxGeometry x="86" y="559" width="80" height="30" as="geometry" />
        </mxCell>
        <mxCell id="1wcsC5_ncH1TTVxNuy9U-180" value="Facebook&lt;span style=&quot;color: rgba(0, 0, 0, 0); font-family: monospace; font-size: 0px; text-align: start; text-wrap-mode: nowrap;&quot;&gt;%3CmxGraphModel%3E%3Croot%3E%3CmxCell%20id%3D%220%22%2F%3E%3CmxCell%20id%3D%221%22%20parent%3D%220%22%2F%3E%3CmxCell%20id%3D%222%22%20value%3D%22Contact%20Us%22%20style%3D%22text%3Bhtml%3D1%3Balign%3Dcenter%3BverticalAlign%3Dmiddle%3BwhiteSpace%3Dwrap%3Brounded%3D0%3BfontStyle%3D4%22%20vertex%3D%221%22%20parent%3D%221%22%3E%3CmxGeometry%20x%3D%2286%22%20y%3D%22559%22%20width%3D%2280%22%20height%3D%2230%22%20as%3D%22geometry%22%2F%3E%3C%2FmxCell%3E%3C%2Froot%3E%3C%2FmxGraphModel%3E&lt;/span&gt;" style="text;html=1;align=center;verticalAlign=middle;whiteSpace=wrap;rounded=0;fontStyle=4" vertex="1" parent="1">
          <mxGeometry x="180" y="559" width="80" height="30" as="geometry" />
        </mxCell>
        <mxCell id="1wcsC5_ncH1TTVxNuy9U-181" value="LinkedIn" style="text;html=1;align=center;verticalAlign=middle;whiteSpace=wrap;rounded=0;fontStyle=4" vertex="1" parent="1">
          <mxGeometry x="270" y="559" width="80" height="30" as="geometry" />
        </mxCell>
        <mxCell id="1wcsC5_ncH1TTVxNuy9U-182" value="" style="whiteSpace=wrap;html=1;aspect=fixed;fontColor=default;fillColor=light-dark(#000000,#060606);" vertex="1" parent="1">
          <mxGeometry x="194" y="-451" width="12" height="12" as="geometry" />
        </mxCell>
        <mxCell id="1wcsC5_ncH1TTVxNuy9U-183" value="Today&#39;s Date: 6/10/2025" style="text;html=1;align=center;verticalAlign=middle;whiteSpace=wrap;rounded=0;fontStyle=2" vertex="1" parent="1">
          <mxGeometry x="630" y="-705" width="160" height="30" as="geometry" />
        </mxCell>
        <mxCell id="1wcsC5_ncH1TTVxNuy9U-184" value="Phone Number" style="rounded=0;whiteSpace=wrap;html=1;align=left;strokeColor=none;" vertex="1" parent="1">
          <mxGeometry x="350" y="-290" width="290" height="30" as="geometry" />
        </mxCell>
        <mxCell id="1wcsC5_ncH1TTVxNuy9U-185" value="" style="rounded=0;whiteSpace=wrap;html=1;align=left;" vertex="1" parent="1">
          <mxGeometry x="352" y="-260" width="118" height="30" as="geometry" />
        </mxCell>
        <mxCell id="1wcsC5_ncH1TTVxNuy9U-186" value="&lt;div&gt;&lt;font style=&quot;font-size: 23px;&quot;&gt;&lt;b&gt;PATIENT REGISTRATION FORM&lt;/b&gt;&lt;/font&gt;&lt;/div&gt;" style="rounded=0;whiteSpace=wrap;html=1;align=left;gradientColor=none;strokeColor=none;" vertex="1" parent="1">
          <mxGeometry x="99" y="-600" width="360" height="49" as="geometry" />
        </mxCell>
      </root>
    </mxGraphModel>
  </diagram>
</mxfile>
